HIERARCHY
ROOT joint_Root
{
	OFFSET 0.0 0.0 0.0
	CHANNELS 6 Xposition Yposition Zposition Zrotation Xrotation Yrotation 
	JOINT Hips
	{
		OFFSET -0.726466 93.3139 -2.00062
		CHANNELS 6 Xposition Yposition Zposition Zrotation Xrotation Yrotation 
		JOINT Spine
		{
			OFFSET 15.7357 0.0 0.0
			CHANNELS 6 Xposition Yposition Zposition Zrotation Xrotation Yrotation 
			JOINT Chest
			{
				OFFSET 8.98455 -0.406207 0.0
				CHANNELS 6 Xposition Yposition Zposition Zrotation Xrotation Yrotation 
				JOINT Neck
				{
					OFFSET 16.3773 0.0 0.0
					CHANNELS 6 Xposition Yposition Zposition Zrotation Xrotation Yrotation 
					JOINT Head
					{
						OFFSET 6.45672 0.0 0.0
						CHANNELS 6 Xposition Yposition Zposition Zrotation Xrotation Yrotation 
						End Site
						{
							OFFSET 0.0 0.0 0.0
						}
					}
				}
				JOINT Shoulder_L
				{
					OFFSET 12.9942 -0.242716 4.98039
					CHANNELS 6 Xposition Yposition Zposition Zrotation Xrotation Yrotation 
					JOINT UpperArm_L
					{
						OFFSET 5.34809 0.0 0.0
						CHANNELS 6 Xposition Yposition Zposition Zrotation Xrotation Yrotation 
						JOINT LowerArm_L
						{
							OFFSET 24.3286 1.87007e-05 0.0
							CHANNELS 6 Xposition Yposition Zposition Zrotation Xrotation Yrotation 
							JOINT Hand_L
							{
								OFFSET 22.2916 0.0 0.0
								CHANNELS 6 Xposition Yposition Zposition Zrotation Xrotation Yrotation 
								End Site
								{
									OFFSET 0.0 0.0 0.0
								}
							}
						}
					}
				}
				JOINT Shoulder_R
				{
					OFFSET 12.9945 -0.242716 -4.98039
					CHANNELS 6 Xposition Yposition Zposition Zrotation Xrotation Yrotation 
					JOINT UpperArm_R
					{
						OFFSET -5.34813 0.0 0.0
						CHANNELS 6 Xposition Yposition Zposition Zrotation Xrotation Yrotation 
						JOINT LowerArm_R
						{
							OFFSET -24.3289 0.000322201 0.0
							CHANNELS 6 Xposition Yposition Zposition Zrotation Xrotation Yrotation 
							JOINT Hand_R
							{
								OFFSET -22.2915 -0.000108084 0.0
								CHANNELS 6 Xposition Yposition Zposition Zrotation Xrotation Yrotation 
								End Site
								{
									OFFSET 0.0 0.0 0.0
								}
							}
						}
					}
				}
			}
		}
		JOINT UpperLeg_L
		{
			OFFSET -2.19248 -6.46944 0.0
			CHANNELS 6 Xposition Yposition Zposition Zrotation Xrotation Yrotation 
			JOINT LowerLeg_L
			{
				OFFSET 39.0811 0.0 -1.23785e-05
				CHANNELS 6 Xposition Yposition Zposition Zrotation Xrotation Yrotation 
				JOINT Foot_L
				{
					OFFSET 40.9854 0.0 -1.26872e-05
					CHANNELS 6 Xposition Yposition Zposition Zrotation Xrotation Yrotation 
					JOINT Toes_L
					{
						OFFSET 11.7543 0.0 0.0
						CHANNELS 6 Xposition Yposition Zposition Zrotation Xrotation Yrotation 
						End Site
						{
							OFFSET 0.0 0.0 0.0
						}
					}
				}
			}
		}
		JOINT UpperLeg_R
		{
			OFFSET -2.19251 6.46944 0.0
			CHANNELS 6 Xposition Yposition Zposition Zrotation Xrotation Yrotation 
			JOINT LowerLeg_R
			{
				OFFSET -39.0811 -0.00228153 -0.0401928
				CHANNELS 6 Xposition Yposition Zposition Zrotation Xrotation Yrotation 
				JOINT Foot_R
				{
					OFFSET -40.9854 0.0 0.0
					CHANNELS 6 Xposition Yposition Zposition Zrotation Xrotation Yrotation 
					JOINT Toes_R
					{
						OFFSET -11.7543 0.0 0.0
						CHANNELS 6 Xposition Yposition Zposition Zrotation Xrotation Yrotation 
						End Site
						{
							OFFSET 0.0 0.0 0.0
						}
					}
				}
			}
		}
	}
}
MOTION
Frames:	4
Frame Time:	0.0333333
0.000000 0.000000 0.000000 0.000000 0.000000 -0.000000 -1.410530 92.151700 -1.093410 87.639700 0.806781 1.015740 15.735700 0.000005 -0.000001 85.559400 85.999800 -85.243700 8.984550 -0.406207 -0.000000 0.212258 -0.640059 0.632129 16.377300 -0.000001 -0.000001 -0.186406 -1.521640 -0.752499 6.456720 -0.000001 -0.000000 -1.238030 -0.621321 4.572030 12.994200 -0.242716 4.980390 -89.548700 -1.459370 -72.812500 5.348090 -0.000007 -0.000001 -64.660900 38.248200 -17.244400 24.328600 0.000019 0.000005 2.522480 5.671590 -24.025900 22.291600 -0.000001 0.000005 8.784000 5.547280 -8.577920 12.994500 -0.242716 -4.980390 87.732000 6.867560 -71.674500 -5.348130 -0.000001 -0.000004 -66.044100 37.576500 -15.375000 -24.328900 0.000322 -0.000009 1.620530 4.752290 -18.865600 -22.291500 -0.000108 -0.000004 14.687800 5.455650 -4.843360 -2.192480 -6.469440 -0.000000 -168.524000 -15.877100 -4.518300 39.081100 -0.000007 -0.000012 -0.173157 0.481059 19.796500 40.985400 -0.000006 -0.000013 -6.939200 3.718400 -62.242500 11.754300 -0.000000 0.000003 -0.000161 -0.001546 -16.636200 -2.192510 6.469440 -0.000001 175.063000 22.467200 178.014000 -39.081100 -0.002282 -0.040193 -0.038289 0.127747 18.043100 -40.985400 0.000008 0.000006 -3.252900 3.639480 -62.907500 -11.754300 -0.000006 -0.000006 -0.005062 -0.062067 -19.098500
0.000000 0.000000 0.000000 0.000000 0.000000 -0.000000 -1.405720 92.148300 -1.083210 87.614400 0.810167 1.024910 15.735700 0.000005 -0.000001 85.237000 86.029200 -84.907200 8.984550 -0.406207 -0.000000 0.150288 -0.681173 0.660129 16.377300 -0.000001 -0.000001 -0.361160 -1.549010 -0.750971 6.456720 -0.000001 -0.000000 -1.343760 -0.648363 4.660700 12.994200 -0.242716 4.980390 -89.527400 -1.528040 -72.812900 5.348090 -0.000007 -0.000001 -64.207900 37.080700 -17.008500 24.328600 0.000019 0.000005 2.569180 5.892620 -23.608100 22.291600 -0.000001 0.000005 8.758100 5.543960 -8.424050 12.994500 -0.242716 -4.980390 87.764200 6.745860 -71.614500 -5.348130 -0.000001 -0.000004 -66.036200 36.008000 -15.020200 -24.328900 0.000322 -0.000009 1.629580 4.987350 -18.131200 -22.291500 -0.000108 -0.000004 15.429900 5.450810 -4.669070 -2.192480 -6.469440 -0.000000 -168.498000 -15.776600 -4.521750 39.081100 -0.000007 -0.000012 -0.173383 0.480724 19.833100 40.985400 -0.000006 -0.000013 -6.955600 3.648700 -62.279900 11.754300 -0.000000 0.000003 -0.000168 -0.001598 -16.638100 -2.192510 6.469440 -0.000001 175.082000 22.490700 178.034000 -39.081100 -0.002282 -0.040193 -0.037876 0.126553 18.033600 -40.985400 0.000008 0.000006 -3.291150 3.646590 -62.901800 -11.754300 -0.000006 -0.000006 -0.005086 -0.062292 -19.107700
0.000000 0.000000 0.000000 0.000000 0.000000 -0.000000 -1.392670 92.148900 -1.057990 87.613500 0.785945 1.057040 15.735700 0.000005 -0.000001 85.026700 86.048300 -84.700300 8.984550 -0.406207 -0.000000 0.109783 -0.706782 0.653007 16.377300 -0.000001 -0.000001 -0.557998 -1.583100 -0.748584 6.456720 -0.000001 -0.000000 -1.470290 -0.681663 4.789940 12.994200 -0.242716 4.980390 -89.500300 -1.610530 -72.759000 5.348090 -0.000007 -0.000001 -63.733900 35.116400 -16.582900 24.328600 0.000019 0.000005 2.700570 6.315930 -23.207700 22.291600 -0.000001 0.000005 8.695120 5.540120 -8.248240 12.994500 -0.242716 -4.980390 87.783700 6.618390 -71.439100 -5.348130 -0.000001 -0.000004 -65.989600 33.773900 -14.587200 -24.328900 0.000322 -0.000009 1.584710 5.018350 -17.561300 -22.291500 -0.000108 -0.000004 15.904500 5.450230 -4.648240 -2.192480 -6.469440 -0.000000 -168.504000 -15.810300 -4.469230 39.081100 -0.000007 -0.000012 -0.172077 0.476731 19.847400 40.985400 -0.000006 -0.000013 -6.941580 3.628350 -62.310200 11.754300 -0.000000 0.000003 -0.000155 -0.001497 -16.634400 -2.192510 6.469440 -0.000001 175.053000 22.488600 178.089000 -39.081100 -0.002282 -0.040193 -0.037934 0.126825 18.020600 -40.985400 0.000008 0.000006 -3.226710 3.683160 -62.909900 -11.754300 -0.000006 -0.000006 -0.004750 -0.059021 -18.974400
0.000000 0.000000 0.000000 0.000000 0.000000 -0.000000 -1.390700 92.143200 -1.024100 87.600600 0.731656 1.124020 15.735700 0.000005 -0.000001 84.682500 86.059800 -84.358600 8.984550 -0.406207 -0.000000 0.082630 -0.751829 0.647913 16.377300 -0.000001 -0.000001 -0.739578 -1.589560 -0.734875 6.456720 -0.000001 -0.000000 -1.622580 -0.644083 4.936620 12.994200 -0.242716 4.980390 -89.464200 -1.709820 -72.596600 5.348090 -0.000007 -0.000001 -63.277000 32.225800 -15.933000 24.328600 0.000019 0.000005 2.736230 6.525940 -22.807300 22.291600 -0.000001 0.000005 8.753960 5.535820 -8.053770 12.994500 -0.242716 -4.980390 87.804800 6.461490 -71.190000 -5.348130 -0.000001 -0.000004 -65.755100 31.064500 -14.195400 -24.328900 0.000322 -0.000009 1.374660 4.469120 -17.129100 -22.291500 -0.000108 -0.000004 16.346800 5.448000 -4.568480 -2.192480 -6.469440 -0.000000 -168.460000 -15.813200 -4.368070 39.081100 -0.000007 -0.000012 -0.172797 0.478052 19.873100 40.985400 -0.000006 -0.000013 -6.955980 3.597960 -62.359600 11.754300 -0.000000 0.000003 -0.000167 -0.001588 -16.637800 -2.192510 6.469440 -0.000001 175.037000 22.447900 178.171000 -39.081100 -0.002282 -0.040193 -0.036025 0.120836 18.037600 -40.985400 0.000008 0.000006 -3.240490 3.677420 -62.936200 -11.754300 -0.000006 -0.000006 -0.004991 -0.061382 -19.070600
